# xmcd
#
# Track frame offsets:
#	225
#	15994
#	30053
#	39610
#	53723
#	67858
#	82548
#	98107
#	113516
#	125054
#	139085
#
# Disc length: 2387 seconds
#
# Revision: 1
# Processed by: cddbd v1.5.1PL0 Copyright (c) Steve Scherf et al.
# Submitted via: audiograbber 1.83.01
#
DISCID=7509500b
DTITLE=Bartl Gensbichler und seine Schilehrermusi - Mir san die Schilehrermusi
DYEAR=1900
DGENRE=
TTITLE0=Mir san die Schilehrer
TTITLE1=Auf zur Musikanten-WM
TTITLE2=Spitzbuam-Boarischer
TTITLE3=Eine Walzermelodie für dich
TTITLE4=Schilehrer-Polka
TTITLE5=Schön ist die Blasmusik
TTITLE6=Trompetenklänge
TTITLE7=Klatscht`s in die Händ
TTITLE8=3/4 Takt in Hinterglemm
TTITLE9=Heut kum i mit an Affen hoam
TTITLE10=Schilehrer-Medley
EXTD=
EXTT0=
EXTT1=
EXTT2=
EXTT3=
EXTT4=
EXTT5=
EXTT6=
EXTT7=
EXTT8=
EXTT9=
EXTT10=
PLAYORDER=
